<?xml version="1.0" standalone="no"?><!DOCTYPE svg PUBLIC "-//W3C//DTD SVG 1.1//EN" "http://www.w3.org/Graphics/SVG/1.1/DTD/svg11.dtd"><svg t="1641098551207" class="icon" viewBox="0 0 1837 1024" version="1.1" xmlns="http://www.w3.org/2000/svg" p-id="2373" width="57.40625" height="32" xmlns:xlink="http://www.w3.org/1999/xlink"><defs><style type="text/css"></style></defs><path d="M561.621141 682.749896c-10.238179-1.137916-18.201547-9.82067-18.201547-20.361747L543.419594 460.499046c0-10.541077 7.963369-19.224854 18.201547-20.361747l0-8.156774L468.534046 431.980525l0 8.156774c10.238179 1.137916 18.201547 9.82067 18.201547 20.361747l0 201.889103c0 10.541077-7.963369 19.224854-18.201547 20.361747l0 8.157797 93.087095 0L561.621141 682.749896z" p-id="2374" fill="#cdcdcd"></path><path d="M380.093784 682.749896c-10.238179-1.137916-18.201547-9.82067-18.201547-20.361747L361.892237 460.499046c0-10.541077 7.963369-19.224854 18.201547-20.361747l0-8.156774-93.087095 0 0 8.156774c10.238179 1.137916 18.201547 9.82067 18.201547 20.361747l0 201.889103c0 10.541077-7.963369 19.224854-18.201547 20.361747l0 8.157797 93.087095 0L380.093784 682.749896z" p-id="2375" fill="#cdcdcd"></path><path d="M772.699534 754.2176 268.626064 754.2176c-5.452175 0-9.911744 4.460592-9.911744 9.911744l0 10.645454c0 5.452175 4.460592 9.911744 9.911744 9.911744l504.07347 0c5.452175 0 9.912767-4.460592 9.912767-9.911744l0-10.645454C782.612301 758.678192 778.151709 754.2176 772.699534 754.2176z" p-id="2376" fill="#cdcdcd"></path><path d="M743.150544 682.749896c-10.238179-1.137916-18.201547-9.82067-18.201547-20.361747L724.948997 460.499046c0-10.541077 7.963369-19.224854 18.201547-20.361747l0-8.156774-93.087095 0 0 8.156774c10.238179 1.137916 18.201547 9.82067 18.201547 20.361747l0 201.889103c0 10.541077-7.963369 19.224854-18.201547 20.361747l0 8.157797 93.087095 0L743.150544 682.749896z" p-id="2377" fill="#cdcdcd"></path><path d="M757.676375 346.228489 527.653515 175.298492c-4.043083-3.004427-9.936303-3.004427-13.980409 0L283.651268 346.228489c-7.780197 5.78168-3.166109 17.017582 6.990205 17.017582l460.044698 0C760.841461 363.247094 765.457596 352.011192 757.676375 346.228489z" p-id="2378" fill="#cdcdcd"></path><path d="M511.978511 56.482409c-246.998487 0-447.230857 200.231347-447.230857 447.230857 0 246.998487 200.23237 447.231881 447.230857 447.231881 246.99951 0 447.229834-200.233394 447.229834-447.231881C959.208345 256.713756 758.978021 56.482409 511.978511 56.482409zM804.953122 791.888572c0 5.916756-4.841262 10.758018-10.758018 10.758018L247.130494 802.64659c-5.916756 0-10.758018-4.840238-10.758018-10.758018l0-44.870953c0-5.916756 4.840238-10.758018 10.758018-10.758018l547.06461 0c5.91778 0 10.758018 4.840238 10.758018 10.758018L804.953122 791.888572zM267.455401 456.82026l-14.326287-21.295002c0-16.924461 13.767562-30.697139 30.692023-30.697139l99.451036 0c16.924461 0 30.697139 13.773701 30.697139 30.697139l-13.302981 21.295002c0 11.897981-6.801916 22.230304-16.723893 27.325345L383.942439 638.740566c9.921977 5.095042 16.723893 15.427364 16.723893 27.325345l13.302981 21.295002c0 16.924461-13.772678 30.697139-30.697139 30.697139l-99.451036 0c-16.924461 0-30.692023-13.772678-30.692023-30.697139l14.326287-21.295002c0-11.897981 6.801916-22.23542 16.724917-27.325345L284.180318 484.145605C274.258341 479.05568 267.455401 468.718241 267.455401 456.82026zM446.937169 456.82026l-12.279674-21.295002c0-16.924461 13.767562-30.697139 30.692023-30.697139l99.451036 0c16.924461 0 30.697139 13.773701 30.697139 30.697139l-12.279674 21.295002c0 11.897981-6.801916 22.230304-16.723893 27.325345L566.494125 638.740566c9.921977 5.095042 16.723893 15.427364 16.723893 27.325345l12.279674 21.295002c0 16.924461-13.772678 30.697139-30.697139 30.697139l-99.451036 0c-16.924461 0-30.692023-13.772678-30.692023-30.697139l12.279674-21.295002c0-11.897981 6.801916-22.23542 16.724917-27.325345L463.662085 484.145605C453.740108 479.05568 446.937169 468.718241 446.937169 456.82026zM628.466572 456.82026l-12.279674-21.295002c0-16.924461 13.767562-30.697139 30.692023-30.697139l99.451036 0c16.924461 0 30.697139 13.773701 30.697139 30.697139l-12.279674 21.295002c0 11.897981-6.801916 22.230304-16.723893 27.325345L748.023528 638.740566c9.921977 5.095042 16.723893 15.427364 16.723893 27.325345l12.279674 21.295002c0 16.924461-13.772678 30.697139-30.697139 30.697139l-99.451036 0c-16.924461 0-30.692023-13.772678-30.692023-30.697139l12.279674-21.295002c0-11.897981 6.801916-22.23542 16.724917-27.325345L645.191488 484.145605C635.268488 479.05568 628.466572 468.718241 628.466572 456.82026zM813.45782 384.083655 227.867778 384.083655c-12.927427 0-18.802228-14.302751-8.897647-21.662369l292.795533-217.577411c5.14723-3.824095 12.649088-3.824095 17.795295 0l292.795533 217.577411C832.261071 369.780905 826.385247 384.083655 813.45782 384.083655z" p-id="2379" fill="#cdcdcd"></path></svg>